<svg width="32" height="32" viewBox="0 0 50 50" xmlns="http://www.w3.org/2000/svg">
    <path fill="#005F4F"
        d="M19.4,18.1c1-1.5,5.7-8.2,6.7-9.7l5-7c0.6-0.8,1-1.2,2.5-1.2h4.4c1,0,0.9,0.6,0.8,1l-6,29.9 c-0.1,0.5-0.3,1.1-1.2,1.1H26c-0.8,0-0.9-0.5-0.8-1.1L28,16.8h-0.1c-0.2,0.4-2.5,3.7-2.8,4.1c-1,1.5-2.7,3.8-3.8,5.4 c-0.6,0.8-0.9,1.3-2,1.3H16c-1.1,0-1.1-0.4-1.5-1.2l-1.5-5.2l-1.3-4.5l-0.1,0L8.6,31.2c-0.1,0.5-0.4,1.1-1.2,1.1H1.7 c-0.9,0-1.1-0.4-1-1.1l6-29.9c0.2-0.6,0.5-1,1.3-1h4c1.4,0,1.7,0.3,2,1.1c0.4,1,1.8,5.8,2.1,6.8c0.5,1.5,2.4,8.3,2.9,9.9H19.4z">
    </path>
</svg>